<svg width="25" height="24" viewBox="0 0 25 24" fill="none" xmlns="http://www.w3.org/2000/svg">
<path d="M19.2057 3.70487C19.595 3.56331 19.7958 3.13299 19.6543 2.74371C19.5127 2.35444 19.0824 2.15362 18.6931 2.29518L6.19958 6.83828V3.00002C6.19958 2.58581 5.8638 2.25002 5.44958 2.25002H3.94958C3.53537 2.25002 3.19958 2.58581 3.19958 3.00002V7.92919L2.19312 8.29518C1.80384 8.43673 1.60302 8.86705 1.74458 9.25633C1.88613 9.6456 2.31646 9.84642 2.70573 9.70487L19.2057 3.70487Z" fill="#999999"/>
<path fill-rule="evenodd" clip-rule="evenodd" d="M3.21854 11.1145L18.1996 5.6669V9.0884L22.2057 10.5452C22.595 10.6867 22.7958 11.1171 22.6543 11.5063C22.5127 11.8956 22.0824 12.0964 21.6931 11.9549L21.1994 11.7753V20.25H21.9496C22.3638 20.25 22.6996 20.5858 22.6996 21C22.6996 21.4142 22.3638 21.75 21.9496 21.75H2.44958C2.03537 21.75 1.69958 21.4142 1.69958 21C1.69958 20.5858 2.03537 20.25 2.44958 20.25H3.19958V11.1213L3.21854 11.1145ZM18.1996 20.25V10.6845L19.6994 11.2299V20.25H18.1996ZM9.19958 14.25C8.78537 14.25 8.44958 14.5858 8.44958 15V19.5C8.44958 19.9142 8.78537 20.25 9.19958 20.25H12.1996C12.6138 20.25 12.9496 19.9142 12.9496 19.5V15C12.9496 14.5858 12.6138 14.25 12.1996 14.25H9.19958Z" fill="#999999"/>
</svg>
