<svg width="25" height="24" viewBox="0 0 25 24" fill="none" xmlns="http://www.w3.org/2000/svg">
<path fill-rule="evenodd" clip-rule="evenodd" d="M7.55078 2.25C7.96499 2.25 8.30078 2.58579 8.30078 3V4.5H17.3008V3C17.3008 2.58579 17.6366 2.25 18.0508 2.25C18.465 2.25 18.8008 2.58579 18.8008 3V4.5H19.5508C21.2076 4.5 22.5508 5.84315 22.5508 7.5V18.75C22.5508 20.4069 21.2076 21.75 19.5508 21.75H6.05078C4.39393 21.75 3.05078 20.4069 3.05078 18.75V7.5C3.05078 5.84315 4.39393 4.5 6.05078 4.5H6.80078V3C6.80078 2.58579 7.13657 2.25 7.55078 2.25ZM21.0508 11.25C21.0508 10.4216 20.3792 9.75 19.5508 9.75H6.05078C5.22235 9.75 4.55078 10.4216 4.55078 11.25V18.75C4.55078 19.5784 5.22235 20.25 6.05078 20.25H19.5508C20.3792 20.25 21.0508 19.5784 21.0508 18.75V11.25Z" fill="#999999"/>
</svg>
